<svg width="48" height="64" viewBox="0 0 48 64" xmlns="http://www.w3.org/2000/svg"><title>VivaIcons_Large_aplicativo</title><g fill="none" fill-rule="evenodd"><path d="M-30-16h96v96h-96z"/><path d="M16 58c0-1.1.9-2 2-2s2 .9 2 2-.9 2-2 2-2-.9-2-2zm25-34H25c-.55 0-1 .45-1 1s.45 1 1 1h16c.55 0 1-.45 1-1s-.45-1-1-1zm-4 6H25c-.55 0-1 .45-1 1s.45 1 1 1h12c.55 0 1-.45 1-1s-.45-1-1-1zm11-10v16c0 2.21-1.79 4-4 4h-8v20c0 2.21-1.79 4-4 4H4c-2.21 0-4-1.79-4-4V4c0-2.21 1.79-4 4-4h28c2.21 0 4 1.79 4 4v12h8c2.21 0 4 1.79 4 4zM2 8h32V4c0-1.1-.9-2-2-2H4c-1.1 0-2 .9-2 2v4zm32 46H2v6c0 1.1.9 2 2 2h28c1.1 0 2-.9 2-2v-6zm0-14h-2l-5.58 5.58c-.29.29-.64.42-.99.42-.73 0-1.43-.57-1.43-1.42V40h-2c-2.21 0-4-1.79-4-4V20c0-2.21 1.79-4 4-4h12v-6H2v42h32V40zm12-20c0-1.1-.9-2-2-2H22c-1.1 0-2 .9-2 2v16c0 1.1.9 2 2 2h4v5.17l4.59-4.59.59-.59h12.83c1.1 0 2-.9 2-2V20H46z" fill="#1190CD" fill-rule="nonzero"/></g></svg>