<svg width="80" height="72" viewBox="0 0 80 72" xmlns="http://www.w3.org/2000/svg"><title>VivaIcons_Large_imovel_perfeito</title><g fill="none" fill-rule="evenodd"><path d="M-8-12h96v96H-8z"/><path d="M38 56c0-1.1.9-2 2-2s2 .9 2 2-.9 2-2 2-2-.9-2-2zM80 4v56c0 2.21-1.79 4-4 4H52v6h7c.55 0 1 .45 1 1s-.45 1-1 1H21c-.55 0-1-.45-1-1s.45-1 1-1h7v-6H4c-2.21 0-4-1.79-4-4V4c0-2.21 1.79-4 4-4h72c2.21 0 4 1.79 4 4zM50 64H30v6h20v-6zm28-14H2v10c0 1.1.9 2 2 2h72c1.1 0 2-.9 2-2V50zm0-46c0-1.1-.9-2-2-2H4c-1.1 0-2 .9-2 2v44h76V4zm-6 16v10c0 2.21-1.79 4-4 4H12c-2.21 0-4-1.79-4-4V20c0-2.21 1.79-4 4-4h56c2.21 0 4 1.79 4 4zm-18-2H12c-1.1 0-2 .9-2 2v10c0 1.1.9 2 2 2h42V18zm16 2c0-1.1-.9-2-2-2H56v14h12c1.1 0 2-.9 2-2V20zm-2.29 8.29c.39.39.39 1.02 0 1.41-.2.2-.45.29-.71.29-.26 0-.51-.1-.71-.29l-2.26-2.26c-.6.35-1.29.55-2.03.55-2.21 0-4-1.79-4-4s1.79-4 4-4 4 1.79 4 4c0 .74-.2 1.44-.55 2.03l2.26 2.27zM64 24c0-1.1-.9-2-2-2s-2 .9-2 2 .9 2 2 2 2-.9 2-2z" fill="#1190CD" fill-rule="nonzero"/></g></svg>