<svg xmlns="http://www.w3.org/2000/svg" viewBox="0 0 132 70" width="132" height="70">
	<path id="Layer" fill="#ffffff" fill-rule="evenodd" class="shp0" d="M19.62 57.77C23.52 58.81 26.2 61.02 26.2 63.58C26.2 67.13 21.01 70 14.6 70C8.19 70 3 67.13 3 63.58C3 61.02 5.69 58.81 9.58 57.78C9.57 58.02 9.58 58.27 9.6 58.51C9.62 58.75 9.66 58.99 9.72 59.23C9.77 59.46 9.84 59.69 9.93 59.92C10.02 60.15 10.13 60.36 10.25 60.58L13.87 67.02C13.94 67.14 14 67.26 14.06 67.38C14.12 67.51 14.17 67.64 14.22 67.77C14.27 67.9 14.31 68.03 14.35 68.16C14.39 68.29 14.42 68.43 14.45 68.56L14.6 68.29C14.82 67.9 14.99 67.49 15.1 67.05C15.22 66.62 15.27 66.17 15.27 65.72C15.27 65.27 15.22 64.83 15.1 64.39C14.99 63.96 14.82 63.54 14.6 63.15L11.68 58C10.8 56.41 10.8 54.45 11.7 52.87L11.85 52.6C11.88 52.74 11.91 52.87 11.95 53.01C11.98 53.14 12.03 53.27 12.08 53.4C12.12 53.53 12.18 53.66 12.23 53.78C12.29 53.91 12.35 54.03 12.42 54.15L14.12 57.15L16.78 61.87C16.85 61.99 16.91 62.11 16.97 62.24C17.03 62.36 17.08 62.49 17.13 62.62C17.18 62.75 17.22 62.88 17.26 63.01C17.3 63.15 17.33 63.28 17.35 63.42L17.51 63.15C17.73 62.76 17.89 62.34 18.01 61.91C18.12 61.47 18.18 61.03 18.18 60.58C18.18 60.13 18.12 59.68 18.01 59.25C17.89 58.81 17.73 58.4 17.51 58L14.6 52.86C14.38 52.47 14.21 52.05 14.1 51.62C13.99 51.18 13.93 50.73 13.93 50.29C13.93 49.84 13.99 49.39 14.1 48.96C14.21 48.52 14.38 48.1 14.6 47.71L14.76 47.44C14.78 47.58 14.81 47.72 14.85 47.85C14.89 47.99 14.93 48.12 14.98 48.25C15.03 48.38 15.08 48.51 15.14 48.64C15.2 48.76 15.26 48.89 15.33 49.01L18.96 55.42C19.06 55.59 19.15 55.78 19.23 55.97C19.31 56.16 19.37 56.35 19.43 56.55C19.48 56.75 19.53 56.95 19.56 57.15C19.59 57.36 19.61 57.56 19.62 57.77ZM30.62 68.18C30.64 67.99 30.67 67.8 30.7 67.62C30.74 67.43 30.78 67.24 30.83 67.06C30.88 66.87 30.93 66.69 30.99 66.51C31.31 66.65 31.62 66.78 31.95 66.88C32.28 66.99 32.61 67.08 32.94 67.15C33.28 67.23 33.61 67.28 33.95 67.32C34.29 67.36 34.64 67.38 34.98 67.38C37 67.38 38.13 66.72 38.13 65.39C38.13 64.06 37.3 63.5 35.26 62.58L34.14 62.09C32.09 61.18 30.7 59.99 30.7 57.64C30.7 55.1 32.41 53.47 35.95 53.47C37.31 53.46 38.66 53.68 39.94 54.12C39.89 54.88 39.74 55.62 39.51 56.35C39.22 56.24 38.93 56.15 38.64 56.07C38.34 56 38.05 55.93 37.75 55.87C37.45 55.82 37.15 55.78 36.85 55.75C36.54 55.72 36.24 55.7 35.94 55.7C34.04 55.7 33.17 56.46 33.17 57.64C33.17 58.82 34.02 59.47 35.55 60.13L36.73 60.64C39.49 61.84 40.65 63.12 40.65 65.28C40.65 67.84 38.75 69.6 35.06 69.6C33.26 69.6 31.8 69.34 30.58 68.75C30.58 68.56 30.6 68.37 30.62 68.18ZM52.36 69.24L50.16 69.24L50.04 67.9C49.42 68.88 48.5 69.5 46.97 69.5C44.09 69.5 42.18 67.36 42.18 63.62C42.18 59.71 44.23 57.48 48.26 57.48C49.81 57.48 51.09 57.66 52.36 58.11L52.36 69.24ZM49.95 59.71C49.81 59.68 49.66 59.66 49.52 59.65C49.38 59.63 49.24 59.62 49.09 59.6C48.95 59.59 48.81 59.59 48.66 59.58C48.52 59.58 48.38 59.58 48.23 59.58C45.75 59.58 44.6 61.15 44.6 63.64C44.6 65.91 45.5 67.51 47.63 67.51C47.84 67.51 48.05 67.49 48.25 67.45C48.46 67.42 48.66 67.37 48.86 67.3C49.05 67.23 49.24 67.15 49.43 67.05C49.61 66.95 49.78 66.83 49.95 66.7L49.95 59.71ZM64.62 61.76L64.62 69.24L62.23 69.24L62.23 62.19C62.23 60.43 61.66 59.58 59.26 59.58C58.63 59.6 58 59.65 57.36 59.76L57.36 69.24L54.97 69.24L54.97 58.11C56.5 57.74 58.17 57.5 59.33 57.5C63.33 57.48 64.62 59.06 64.62 61.76L64.62 61.76ZM71.27 67.41C71.9 67.41 72.53 67.3 73.14 67.08C73.07 67.74 72.98 68.5 72.86 69.15C72.7 69.21 72.53 69.26 72.37 69.31C72.2 69.36 72.03 69.39 71.86 69.42C71.69 69.45 71.52 69.47 71.35 69.48C71.18 69.5 71.01 69.5 70.83 69.5C68.5 69.5 67.02 68.41 67.02 65.69L67.02 54.01C67.21 53.95 67.41 53.9 67.61 53.85C67.8 53.81 68 53.77 68.2 53.74C68.4 53.71 68.6 53.69 68.81 53.67C69.01 53.66 69.21 53.65 69.41 53.65L69.41 57.86L73.2 57.86C73.19 58.04 73.18 58.21 73.17 58.39C73.15 58.56 73.14 58.74 73.12 58.91C73.1 59.09 73.08 59.26 73.06 59.44C73.03 59.61 73.01 59.79 72.98 59.96L69.41 59.96L69.41 65.42C69.41 66.86 70.11 67.41 71.27 67.41L71.27 67.41ZM84.12 69.23L81.93 69.23L81.79 67.89C81.17 68.86 80.24 69.48 78.72 69.48C75.84 69.48 73.93 67.35 73.93 63.61C73.93 59.69 75.98 57.47 80.01 57.47C81.57 57.48 82.86 57.66 84.12 58.1L84.12 69.23ZM81.73 66.7L81.73 59.71C81.59 59.68 81.44 59.66 81.3 59.65C81.16 59.63 81.02 59.61 80.87 59.6C80.73 59.59 80.59 59.59 80.44 59.58C80.3 59.58 80.16 59.58 80.01 59.58C77.53 59.58 76.37 61.15 76.37 63.64C76.37 65.91 77.26 67.51 79.39 67.51C79.6 67.51 79.81 67.49 80.02 67.45C80.23 67.42 80.43 67.37 80.63 67.3C80.83 67.23 81.02 67.15 81.2 67.05C81.39 66.95 81.56 66.83 81.73 66.7L81.73 66.7ZM96.39 69.24L93.99 69.24L93.99 62.19C93.99 60.43 93.42 59.58 91.03 59.58C90.39 59.6 89.76 59.65 89.14 59.76L89.14 69.24L86.73 69.24L86.73 58.11C88.26 57.74 89.93 57.5 91.09 57.5C95.11 57.48 96.39 59.06 96.39 61.76L96.39 69.24ZM108.55 69.23L106.35 69.23L106.23 67.81C105.61 68.85 104.68 69.5 103.11 69.5C100.24 69.5 98.32 67.36 98.32 63.62C98.32 59.71 100.37 57.48 104.39 57.48C104.99 57.48 105.6 57.55 106.18 57.66L106.18 53.99C106.92 53.73 107.77 53.65 108.55 53.65L108.55 69.23ZM106.18 66.65L106.18 59.8C106.03 59.77 105.87 59.74 105.71 59.71C105.55 59.68 105.39 59.66 105.23 59.64C105.07 59.62 104.91 59.61 104.75 59.6C104.59 59.59 104.43 59.58 104.27 59.58C101.89 59.58 100.76 61.1 100.76 63.64C100.76 65.91 101.66 67.51 103.79 67.51C104 67.51 104.22 67.49 104.43 67.45C104.65 67.41 104.86 67.36 105.06 67.29C105.26 67.21 105.46 67.12 105.65 67.02C105.84 66.91 106.02 66.79 106.18 66.65L106.18 66.65ZM120.61 64.48L112.97 64.48C113.27 66.46 114.4 67.41 116.53 67.41C117.86 67.41 119.16 67.13 120.37 66.56C120.27 67.21 120.15 68.06 119.99 68.78C118.9 69.29 117.75 69.5 116.47 69.5C112.46 69.5 110.52 67.22 110.52 63.42C110.52 60.1 112.02 57.47 115.84 57.47C119.25 57.47 120.74 59.76 120.74 62.57C120.74 63.21 120.69 63.84 120.61 64.48L120.61 64.48ZM112.92 62.42C112.92 62.42 112.92 62.42 112.92 62.42L112.92 62.42L112.92 62.42ZM118.33 62.42C118.33 60.59 117.37 59.54 115.71 59.54C114 59.54 113.1 60.53 112.92 62.42L118.33 62.42ZM128.78 59.68C128.63 59.66 128.48 59.65 128.33 59.64C128.18 59.62 128.03 59.61 127.88 59.61C127.73 59.6 127.58 59.59 127.43 59.59C127.28 59.59 127.13 59.58 126.98 59.58C126.39 59.58 125.8 59.63 125.22 59.71L125.22 69.24L122.82 69.24L122.82 58.11C123.84 57.77 125.57 57.5 126.91 57.5C127.59 57.48 128.3 57.51 129 57.58C129 58.29 128.94 58.98 128.78 59.68Z" />
	<path id="+ " fill="#ffffff" d="M66.97 32.73Q68.06 32.75 68.06 34.03L68.06 36.64L70.72 36.63Q71.99 36.63 71.99 37.76Q71.99 38.85 70.71 38.87Q69.38 38.88 68.06 38.89L68.06 41.95Q68.06 43.09 66.92 43.07Q65.75 43.05 65.77 41.9Q65.79 40.41 65.8 38.92Q64.3 38.93 62.79 38.94Q61.65 38.95 61.67 37.81Q61.67 36.66 62.83 36.66L65.81 36.64Q65.82 35.32 65.82 34Q65.82 32.72 66.97 32.73Z" />
	<path id="Layer" fill="#ffffff" fill-rule="evenodd" class="shp0" d="M47.97 20.65L44.11 20.65L39.71 5.75L43.12 5.75L46.17 18.05L49.14 5.75L52.37 5.75L47.97 20.65ZM56.68 7.27C56.68 8.17 55.96 8.89 54.97 8.89C53.99 8.89 53.27 8.17 53.27 7.27C53.27 6.38 53.99 5.66 54.97 5.66C55.96 5.66 56.68 6.38 56.68 7.27ZM56.41 20.65L53.54 20.65L53.54 9.88L56.41 9.88L56.41 20.65ZM64.67 20.65L61.26 20.65L57.76 9.97L60.9 9.97L63.06 18.41L65.21 9.97L68.17 9.97L64.67 20.65ZM77.87 20.92C76.62 20.83 75.81 20.38 75.45 19.4C74.64 20.56 73.47 21.01 72.22 21.01C70.06 21.01 68.71 19.67 68.71 17.69C68.71 15.36 70.51 14.1 73.65 14.1L74.91 14.1L74.91 13.47C74.91 12.12 74.37 11.67 73.02 11.67C72.3 11.67 71.32 11.85 70.15 12.21L69.52 10.33C70.87 9.79 72.3 9.52 73.47 9.52C76.44 9.52 77.69 10.87 77.69 13.29L77.69 17.6C77.69 18.5 77.96 18.86 78.5 19.04L77.87 20.92ZM74.91 15.62L73.92 15.62C72.39 15.62 71.59 16.16 71.59 17.33C71.59 18.32 72.04 18.86 72.93 18.86C73.83 18.86 74.46 18.5 74.91 17.69L74.91 15.62ZM83.44 14.82L83.44 20.65L80.3 20.65L80.3 5.84L84.97 5.84C88.92 5.84 90.98 7.27 90.98 10.33C90.98 12.3 90 13.47 88.02 14.37L91.88 20.74L88.29 20.74L85.06 14.82L83.44 14.82ZM85.06 12.57C86.67 12.57 87.57 11.85 87.57 10.24C87.57 8.71 86.67 8.08 84.79 8.08L83.35 8.08L83.35 12.57L85.06 12.57ZM94.75 16.16C94.93 18.23 95.92 18.86 97.27 18.86C98.17 18.86 98.97 18.59 99.87 17.96L101.04 19.58C99.96 20.38 98.62 21.01 97 21.01C93.59 21.01 91.79 18.77 91.79 15.36C91.79 12.12 93.5 9.61 96.64 9.61C99.69 9.61 101.49 11.67 101.49 15.09C101.58 15.36 101.49 15.8 101.49 16.16L94.75 16.16ZM96.82 11.49C95.65 11.49 95.02 12.21 94.84 14.28L98.8 14.28L98.71 14.19C98.71 12.57 98.17 11.49 96.82 11.49ZM112 20.92C110.74 20.83 109.93 20.38 109.48 19.4C108.67 20.56 107.51 21.01 106.25 21.01C104.09 21.01 102.75 19.67 102.75 17.69C102.75 15.36 104.54 14.1 107.69 14.1L108.94 14.1L108.94 13.47C108.94 12.12 108.4 11.67 107.06 11.67C106.34 11.67 105.35 11.85 104.18 12.21L103.55 10.33C104.9 9.79 106.34 9.52 107.51 9.52C110.47 9.52 111.73 10.87 111.73 13.29L111.73 17.6C111.91 18.5 112.18 18.86 112.62 19.04L112 20.92ZM109.03 15.62L108.04 15.62C106.52 15.62 105.71 16.16 105.71 17.33C105.71 18.32 106.16 18.86 107.06 18.86C107.95 18.86 108.58 18.5 109.03 17.69L109.03 15.62ZM114.24 17.96L114.24 5.21L117.2 4.85L117.2 17.87C117.2 18.32 117.38 18.59 117.83 18.59C118.1 18.59 118.28 18.59 118.37 18.5L119 20.56C118.55 20.74 117.83 20.92 117.11 20.92C115.32 20.92 114.24 19.85 114.24 17.96ZM34.59 20.65C37.28 19.67 39.71 18.41 41.32 16.7C38.81 19.94 33.06 22.63 26.96 22.63C20.4 22.63 16.27 20.2 14.47 18.23C12.41 15.89 12.5 12.84 14.83 10.24C15.82 9.25 17.53 8.35 19.32 6.29L19.32 3.86L23.1 0L24.71 1.44L22.92 0.81L22.92 3.05C26.16 0.85 26.59 0.23 26.58 0.06L39.44 11.49L26.69 5.75L26.96 21.37C26.96 21.37 28.3 21.46 30.1 21.37L30.1 9.97L34.59 11.58L34.59 20.65ZM26.51 0C26.51 0 26.58 0 26.58 0.06L26.51 0ZM18.43 11.05C18.43 11.05 17.44 11.31 16.45 12.93C15.46 14.55 14.83 17.15 18.43 18.5L18.43 11.05ZM23.81 9.97L20.22 11.31L20.22 15.54L23.81 14.73L23.81 9.97Z" />
</svg>